<svg width="419" height="94.6" viewBox="0 0 419 94.6" xmlns="http://www.w3.org/2000/svg"><g id="svgGroup" stroke-linecap="round" fill-rule="evenodd" font-size="9pt" stroke="#624cf5" stroke-width="0.25mm" fill="#624cf5" style="stroke:#624cf5;stroke-width:0.25mm;fill:#624cf5"><path d="M 78.6 71.9 L 67 70.9 Q 68.9 52.2 68.9 42.4 A 45.82 45.82 0 0 0 68.805 39.321 Q 68.495 34.744 67.167 33.284 A 1.923 1.923 0 0 0 65.7 32.6 Q 64.505 32.6 62.945 35.881 A 30.238 30.238 0 0 0 62.4 37.1 A 33.449 33.449 0 0 0 60.403 43.755 A 40.729 40.729 0 0 0 59.9 47.1 Q 59.7 59.6 59.1 69.4 L 47.4 68.3 Q 48.116 55.687 48.191 47.075 A 225.514 225.514 0 0 0 48.2 45.1 A 50.545 50.545 0 0 0 48.126 42.241 Q 47.897 38.225 46.959 36.794 A 1.496 1.496 0 0 0 45.7 36 Q 44.389 36 42.441 39.725 A 39.862 39.862 0 0 0 41.55 41.55 Q 39 47.1 37.9 53.2 A 266.342 266.342 0 0 0 38.611 69.759 A 294.296 294.296 0 0 0 38.8 72.2 L 27.1 71.1 Q 26 57 26 45.4 Q 26 33.8 26.6 23.7 L 34.9 24.3 Q 35.5 27 36.6 34.1 A 34.197 34.197 0 0 1 39.069 30.678 Q 41.918 27.242 44.738 26.226 A 6.932 6.932 0 0 1 47.1 25.8 A 14.113 14.113 0 0 1 50.951 26.296 A 10.149 10.149 0 0 1 56.4 30 A 31.457 31.457 0 0 1 58.832 26.855 Q 62.795 22.4 66.7 22.4 Q 78.163 22.4 80.173 36.613 A 47.976 47.976 0 0 1 80.6 43.3 Q 80.6 51.413 79.655 61.888 A 353.949 353.949 0 0 1 78.6 71.9 Z M 242.9 1.6 L 242.9 13.9 A 318.123 318.123 0 0 0 229.447 14.173 A 261.133 261.133 0 0 0 221.9 14.6 A 79.355 79.355 0 0 0 221.804 16.312 Q 221.663 19.323 221.55 24.85 Q 221.4 32.2 221.3 33.9 A 232.517 232.517 0 0 1 227.87 33.109 Q 234.176 32.447 238.67 32.403 A 64.427 64.427 0 0 1 239.3 32.4 L 241.3 43.4 A 250.525 250.525 0 0 0 230.99 43.878 Q 225.789 44.233 221.2 44.8 A 1036.353 1036.353 0 0 0 221.277 57.742 Q 221.375 65.606 221.6 72.3 L 208.1 70.8 Q 207.9 54.6 207.9 40.7 A 319.034 319.034 0 0 1 208.056 31.163 Q 208.4 19.738 209.5 4.2 Q 226.6 1.6 242.9 1.6 Z M 154.9 28.1 L 161.9 29.1 A 49.262 49.262 0 0 0 161.272 33.306 Q 160.6 39.383 160.6 49.05 Q 160.6 62.5 159.85 68.85 Q 159.1 75.2 157.4 81.3 Q 155.922 86.603 153.236 90.016 A 17.184 17.184 0 0 1 152.4 91 Q 149.1 94.6 143.7 94.6 A 13.874 13.874 0 0 1 136.709 92.659 A 19.974 19.974 0 0 1 133.4 90.25 Q 128.5 85.9 125.5 79.8 L 133.9 76.2 Q 137.8 83.8 143 83.8 A 3.223 3.223 0 0 0 145.27 82.802 Q 146.413 81.705 147.328 79.404 A 23.623 23.623 0 0 0 148 77.45 Q 149.9 71.1 149.9 61.7 A 36.928 36.928 0 0 1 147.48 65.517 Q 143.32 71.2 138.95 71.2 A 13.465 13.465 0 0 1 134.722 70.565 A 11.115 11.115 0 0 1 129.85 67.35 A 11.967 11.967 0 0 1 127.507 63.259 Q 126.4 60.096 126.4 55.65 Q 126.4 47.8 129.1 40.05 A 51.104 51.104 0 0 1 131.4 34.468 Q 133.343 30.484 135.75 27.65 Q 139.271 23.506 142.513 23.055 A 5.711 5.711 0 0 1 143.3 23 A 15.381 15.381 0 0 1 152.188 25.869 A 21.602 21.602 0 0 1 154.9 28.1 Z M 269.2 22.5 L 280.8 23.5 L 280.6 39.3 Q 280.6 61.6 281.4 72.1 L 271.5 71.1 Q 271.2 66.9 270.2 62.6 A 32.409 32.409 0 0 1 267.533 66.048 Q 264.298 69.651 261.046 70.463 A 7.795 7.795 0 0 1 259.15 70.7 A 13.079 13.079 0 0 1 255.085 70.097 A 10.574 10.574 0 0 1 250.3 66.9 Q 247 63.1 247 56.4 A 219.217 219.217 0 0 1 247.267 45.947 Q 247.546 40.136 248.114 33.563 A 433.441 433.441 0 0 1 248.9 25.4 L 260.5 26.5 A 415.484 415.484 0 0 0 259.475 37.571 Q 259.088 42.528 258.894 46.86 A 180.726 180.726 0 0 0 258.7 54.9 Q 258.7 58.387 260.196 59.49 A 2.793 2.793 0 0 0 261.9 60 Q 263.219 60 265.042 56.828 A 27.564 27.564 0 0 0 265.55 55.9 A 33.032 33.032 0 0 0 267.379 51.683 Q 268.164 49.488 268.778 46.951 A 57.032 57.032 0 0 0 269 46 A 86.59 86.59 0 0 1 268.939 44.238 Q 268.9 42.675 268.9 40.8 A 156.134 156.134 0 0 1 268.911 39.243 Q 268.948 35.697 269.12 26.66 A 6650.251 6650.251 0 0 1 269.2 22.5 Z M 417.7 69.4 L 406 68.3 Q 407.1 56.9 407.1 45.25 A 62.763 62.763 0 0 0 407.003 41.589 Q 406.693 36.32 405.398 34.526 A 1.939 1.939 0 0 0 403.8 33.6 Q 402.291 33.6 399.981 40.763 A 85.724 85.724 0 0 0 399.7 41.65 A 74.303 74.303 0 0 0 397.019 53.528 A 65.551 65.551 0 0 0 396.6 57.4 A 732.865 732.865 0 0 0 396.72 59.773 Q 396.893 63.079 397.199 68.607 A 6491.091 6491.091 0 0 0 397.4 72.2 L 385.7 71.1 A 417.118 417.118 0 0 1 385.03 61.003 Q 384.734 55.492 384.642 50.609 A 228.136 228.136 0 0 1 384.6 46.3 A 328.979 328.979 0 0 1 384.732 36.752 Q 384.863 32.258 385.123 28.239 A 197.655 197.655 0 0 1 385.2 27.1 L 392.6 27.9 A 42.036 42.036 0 0 1 392.714 28.372 Q 392.983 29.513 393.738 32.812 A 3274.503 3274.503 0 0 1 394.1 34.4 A 49.088 49.088 0 0 1 396.551 30.022 Q 399.275 25.74 402.02 23.997 A 7 7 0 0 1 405.8 22.8 A 10.944 10.944 0 0 1 416.266 29.333 Q 418.705 34.2 418.968 42.692 A 68.08 68.08 0 0 1 419 44.8 A 231.708 231.708 0 0 1 418.492 59.847 A 276.902 276.902 0 0 1 417.7 69.4 Z M 287.5 62.5 L 292.9 56.4 Q 296.08 61.885 299.513 63.01 A 5.709 5.709 0 0 0 301.3 63.3 Q 302.8 63.3 303.9 62.45 Q 305 61.6 305 60.1 A 4.809 4.809 0 0 0 304.056 57.303 Q 302.916 55.677 300.4 54.2 A 34.156 34.156 0 0 1 296.639 51.815 Q 294.754 50.428 293.332 48.908 A 19.494 19.494 0 0 1 292.7 48.2 Q 289.9 44.9 289.9 38.85 A 14.056 14.056 0 0 1 292.952 30.129 A 19.741 19.741 0 0 1 294.9 27.95 A 19.623 19.623 0 0 1 298.673 25.042 A 13.679 13.679 0 0 1 305.65 23.1 A 13.468 13.468 0 0 1 309.757 23.697 A 10.697 10.697 0 0 1 314.75 27.05 Q 317.825 30.676 318.077 36.619 A 25.487 25.487 0 0 1 318.1 37.7 Q 318.1 40.4 317.5 43.5 L 308.4 42.7 A 45.792 45.792 0 0 0 308.571 41.213 Q 308.7 39.884 308.7 38.9 Q 308.7 35.339 307.643 33.892 A 2.285 2.285 0 0 0 305.7 32.9 A 3.136 3.136 0 0 0 303.891 33.488 Q 303.45 33.792 303.035 34.253 A 6.294 6.294 0 0 0 302.95 34.35 A 4.927 4.927 0 0 0 301.922 36.361 Q 301.7 37.216 301.7 38.25 A 10.429 10.429 0 0 0 301.834 39.968 Q 301.994 40.925 302.345 41.711 A 5.765 5.765 0 0 0 302.65 42.3 A 6.291 6.291 0 0 0 303.539 43.444 Q 304.516 44.457 306.15 45.45 Q 308.102 46.637 309.41 47.472 A 75.809 75.809 0 0 1 310.15 47.95 Q 311.6 48.9 313.6 50.6 A 11.641 11.641 0 0 1 317.68 59.066 A 15 15 0 0 1 317.7 59.85 A 12.173 12.173 0 0 1 316.827 64.529 A 11.369 11.369 0 0 1 313.45 69 Q 309.2 72.5 303.9 72.5 Q 298.6 72.5 294.35 69.65 Q 290.1 66.8 287.5 62.5 Z M 118.1 72.6 L 109.7 71.9 L 108.9 68.7 A 20.583 20.583 0 0 1 103.549 70.883 A 17.763 17.763 0 0 1 99.3 71.4 Q 94.4 71.4 91.2 68.15 Q 88.363 65.268 88.041 60.145 A 21.49 21.49 0 0 1 88 58.8 A 11.552 11.552 0 0 1 91.125 50.909 A 18.366 18.366 0 0 1 94.05 48.3 A 24.109 24.109 0 0 1 107.631 43.712 A 29.193 29.193 0 0 1 108 43.7 L 108 41 A 24.809 24.809 0 0 0 107.877 38.416 Q 107.603 35.81 106.713 34.481 A 2.878 2.878 0 0 0 104.2 33.1 Q 102.3 33.1 100.75 35.75 A 18.681 18.681 0 0 0 99.021 39.748 A 22.761 22.761 0 0 0 98.5 41.8 L 89.3 40.9 A 34.708 34.708 0 0 1 91.565 33.481 A 27.836 27.836 0 0 1 95 27.65 A 14.152 14.152 0 0 1 99.34 23.83 Q 102.189 22.251 105.768 22.202 A 16.806 16.806 0 0 1 106 22.2 A 12.82 12.82 0 0 1 110.342 22.898 Q 113.943 24.186 116.05 27.85 Q 119.284 33.472 119.3 43.798 A 66.385 66.385 0 0 1 119.3 43.9 Q 119.3 51.863 118.597 64.456 A 844.577 844.577 0 0 1 118.1 72.6 Z M 190.6 55.9 L 198.2 60.4 Q 196.3 63.7 194.55 66 A 13.479 13.479 0 0 1 192.839 67.836 Q 191.378 69.153 189.3 70.4 A 14.842 14.842 0 0 1 181.634 72.499 A 17.53 17.53 0 0 1 181.5 72.5 A 12.817 12.817 0 0 1 171.865 68.256 A 17.93 17.93 0 0 1 170.9 67.15 A 18.385 18.385 0 0 1 167.545 60.407 Q 166.807 57.718 166.645 54.527 A 36.161 36.161 0 0 1 166.6 52.7 A 51.612 51.612 0 0 1 168.858 37.304 A 47.875 47.875 0 0 1 170.3 33.3 A 19.649 19.649 0 0 1 173.877 27.665 A 18.207 18.207 0 0 1 176.05 25.65 A 15.324 15.324 0 0 1 179.07 23.768 A 11.03 11.03 0 0 1 183.75 22.7 Q 186.566 22.7 188.594 23.335 A 9.219 9.219 0 0 1 190.1 23.95 A 17.526 17.526 0 0 1 192.018 25.101 Q 193.134 25.878 193.95 26.75 A 9.066 9.066 0 0 1 194.988 28.116 Q 195.813 29.425 196.5 31.3 Q 197.55 34.163 198.008 36.024 A 20.993 20.993 0 0 1 198.05 36.2 A 20.072 20.072 0 0 1 198.304 37.478 Q 198.522 38.772 198.697 40.56 A 79.829 79.829 0 0 1 198.8 41.7 Q 199.2 46.5 199.2 50.4 Q 191.2 52.6 178.5 54.4 Q 178.707 57.166 179.297 59.167 A 12.206 12.206 0 0 0 179.9 60.8 A 7.836 7.836 0 0 0 180.419 61.764 Q 181.34 63.2 182.5 63.2 Q 185.551 63.2 188.925 58.493 A 34.631 34.631 0 0 0 190.6 55.9 Z M 0.9 0 L 14.4 1.2 Q 13.529 16.491 13.501 35.528 A 862.623 862.623 0 0 0 13.5 36.8 Q 13.5 56.6 14.8 72.9 L 1.3 71.7 Q 0 51.3 0 34.85 Q 0 18.4 0.9 0 Z M 345.7 51.5 Q 345.7 42.2 349.5 33.3 A 19.3 19.3 0 0 1 353.415 27.491 A 18.22 18.22 0 0 1 355.15 25.95 Q 358.8 23.1 363.3 23.1 A 16.552 16.552 0 0 1 367.183 23.536 A 12.816 12.816 0 0 1 371.05 25.15 Q 374.3 27.2 376 30.6 A 32.477 32.477 0 0 1 379.297 44.707 A 37.557 37.557 0 0 1 379.3 45.2 A 45.515 45.515 0 0 1 378.081 55.94 A 37.179 37.179 0 0 1 374.85 64.55 A 19.994 19.994 0 0 1 371.981 68.729 A 12.457 12.457 0 0 1 362.4 73 A 18.24 18.24 0 0 1 354.899 71.571 Q 345.7 67.457 345.7 51.5 Z M 326.6 70.7 L 326.6 22.7 L 338 23.8 L 338 71.8 L 326.6 70.7 Z M 357.4 52.4 A 38.552 38.552 0 0 0 357.561 56.096 Q 357.911 59.703 359.017 61.599 A 3.764 3.764 0 0 0 362.4 63.7 A 1.84 1.84 0 0 0 363.707 63.08 Q 364.853 61.932 365.765 58.659 A 34.062 34.062 0 0 0 366.1 57.35 A 56.537 56.537 0 0 0 367.389 49.627 A 47.471 47.471 0 0 0 367.6 45.2 A 59.557 59.557 0 0 0 367.476 41.178 Q 367.069 35.2 365.326 33.293 A 2.529 2.529 0 0 0 363.4 32.4 A 2.416 2.416 0 0 0 361.669 33.208 Q 360.133 34.753 359.05 39.25 A 59.523 59.523 0 0 0 357.595 48.004 A 50.476 50.476 0 0 0 357.4 52.4 Z M 150.2 43.9 L 150.4 36.3 Q 147.654 33.365 145.984 33.209 A 1.979 1.979 0 0 0 145.8 33.2 Q 143.597 33.2 141.356 38.789 A 42.051 42.051 0 0 0 140.75 40.4 A 45.276 45.276 0 0 0 138.206 54.943 A 51.065 51.065 0 0 0 138.2 55.7 A 18.336 18.336 0 0 0 138.267 57.325 Q 138.439 59.25 139.05 60.4 Q 139.749 61.716 140.584 61.95 A 1.353 1.353 0 0 0 140.95 62 A 1.558 1.558 0 0 0 141.592 61.842 Q 142.478 61.438 143.7 60 A 14.105 14.105 0 0 0 144.759 58.558 Q 145.994 56.659 147.35 53.6 A 38.778 38.778 0 0 0 149.611 46.81 A 46.147 46.147 0 0 0 150.2 43.9 Z M 326.4 16.2 L 327.4 5.1 L 338.6 6.4 L 337.6 17.6 L 326.4 16.2 Z M 184.7 32.5 A 2.489 2.489 0 0 0 183.113 33.119 Q 182.203 33.858 181.384 35.48 A 17.485 17.485 0 0 0 180.75 36.9 A 27.737 27.737 0 0 0 179.3 41.97 A 37.891 37.891 0 0 0 178.7 47.1 Q 184 46 187.9 45 Q 187.9 33.304 185.098 32.552 A 1.53 1.53 0 0 0 184.7 32.5 Z M 107.5 61.4 L 107.7 53 Q 104.619 53.262 102.526 54.191 A 8.502 8.502 0 0 0 100.6 55.35 Q 99.143 56.534 98.571 57.772 A 3.845 3.845 0 0 0 98.2 59.4 Q 98.2 62.376 101.487 62.584 A 8.122 8.122 0 0 0 102 62.6 A 12.785 12.785 0 0 0 105.107 62.199 A 17.159 17.159 0 0 0 107.5 61.4 Z" vector-effect="non-scaling-stroke"/></g></svg>